# xmcd
#
# Track frame offsets:
#	150
#	14617
#	34343
#	45824
#	64827
#	80626
#	97594
#	116803
#	136261
#	153750
#	170552
#	187989
#	206502
#	219953
#	235533
#
# Disc length: 3372 seconds
#
# Revision: 1
# Processed by: cddbd v1.5.1PL0 Copyright (c) Steve Scherf et al.
# Submitted via: audiograbber 1.83.01
#
DISCID=b90d2a0f
DTITLE=V - CB60309
DYEAR=1900
DGENRE=Karaoke Country
TTITLE0=Tracy Byrd, A Griggs, Montgomery Gentry and B Shelton - Truth About Men, 
TTITLE0=The
TTITLE1=Trace Adkins - Then They Do
TTITLE2=Dixie Chicks - White Trash Wedding
TTITLE3=Darryl Worley - Have You Forgotten
TTITLE4=Aaron Lines - Love Changes Everything
TTITLE5=Deana Carter - I'm Just A Girl
TTITLE6=Rhett Akins - In Your Love
TTITLE7=Terri Clark - Three Mississippi
TTITLE8=Brad Paisley - Celebrity
TTITLE9=Allison Paige - Send A Message
TTITLE10=Vince Gill - Someday
TTITLE11=Brad Martin - One Of Those Days
TTITLE12=Jeannie Kendall - That's What Your Love Does To Me
TTITLE13=Clint Black - I Raq and Roll
TTITLE14=Jennifer Hanson - This Far Gone
EXTD=Chartbusters\n\n
EXTT0=
EXTT1=
EXTT2=
EXTT3=
EXTT4=
EXTT5=
EXTT6=
EXTT7=
EXTT8=
EXTT9=
EXTT10=
EXTT11=
EXTT12=
EXTT13=
EXTT14=
PLAYORDER=
